<?xml version="1.0" encoding="iso-8859-1"?>
<!-- Generator: Adobe Illustrator 19.0.0, SVG Export Plug-In . SVG Version: 6.00 Build 0)  -->
<svg version="1.1" id="Layer_1" xmlns="http://www.w3.org/2000/svg" xmlns:xlink="http://www.w3.org/1999/xlink" x="0px" y="0px"
	 viewBox="0 0 512 512" style="enable-background:new 0 0 512 512;" xml:space="preserve">
<path style="fill:#CFF09E;" d="M396.859,244.244L275.281,139.387c-11.079-9.555-27.485-9.555-38.563,0L115.14,244.244
	c-10.282,8.869-16.196,21.774-16.196,35.353l0,0c0,39.953,46.922,61.448,77.177,35.353l60.597-52.262
	c11.079-9.555,27.485-9.555,38.563,0l60.597,52.262c30.255,26.095,77.177,4.6,77.177-35.353l0,0
	C413.053,266.019,407.142,253.113,396.859,244.244z"/>
<g>
	<path style="fill:#507C5C;" d="M366.11,342.08c-0.002,0-0.003,0-0.005,0c-14.933-0.002-28.933-5.269-40.487-15.236l-60.595-52.262
		c-2.508-2.163-5.714-3.353-9.024-3.353c-3.312,0-6.516,1.19-9.024,3.353l-60.597,52.262c-11.556,9.967-25.556,15.236-40.487,15.236
		c-34.547,0-62.652-28.03-62.652-62.483c0-18.163,7.889-35.385,21.642-47.247l121.58-104.858
		c8.209-7.08,18.699-10.978,29.539-10.978c10.838,0,21.33,3.898,29.541,10.978l121.578,104.858
		c13.755,11.864,21.642,29.085,21.642,47.247c0,17.443-6.884,33.527-19.382,45.284C397.761,335.812,381.991,342.08,366.11,342.08z
		 M255.998,239.819c10.838,0,21.33,3.898,29.539,10.977l60.597,52.263c5.772,4.979,12.679,7.611,19.974,7.611
		c0.002,0,0.003,0,0.003,0c7.966,0,15.891-3.158,21.744-8.665c4.332-4.076,9.494-11.27,9.494-22.407
		c0-9.018-3.917-17.57-10.747-23.461L265.024,151.28c-2.508-2.163-5.714-3.355-9.024-3.355s-6.516,1.19-9.024,3.353l-121.58,104.858
		c-6.83,5.89-10.747,14.441-10.747,23.461c0,19.45,15.885,31.072,31.241,31.072c7.294,0,14.199-2.632,19.973-7.611l60.597-52.262
		C234.669,243.717,245.158,239.819,255.998,239.819z"/>
	<path style="fill:#507C5C;" d="M257.016,512c-141.158,0-256-114.842-256-256s114.842-256,256-256
		C385.159,0,494.284,95.678,510.85,222.555c1.123,8.602-4.939,16.485-13.54,17.607c-8.597,1.112-16.483-4.939-17.607-13.541
		c-14.531-111.288-110.265-195.21-222.687-195.21C133.176,31.411,32.427,132.16,32.427,256s100.749,224.589,224.589,224.589
		c88.896,0,169.568-52.551,205.521-133.88c3.509-7.933,12.784-11.523,20.714-8.015c7.934,3.507,11.522,12.781,8.016,20.714
		C450.288,452.105,358.34,512,257.016,512z"/>
</g>
<g>
</g>
<g>
</g>
<g>
</g>
<g>
</g>
<g>
</g>
<g>
</g>
<g>
</g>
<g>
</g>
<g>
</g>
<g>
</g>
<g>
</g>
<g>
</g>
<g>
</g>
<g>
</g>
<g>
</g>
</svg>
