<?xml version="1.0" encoding="iso-8859-1"?>
<!-- Generator: Adobe Illustrator 19.0.0, SVG Export Plug-In . SVG Version: 6.00 Build 0)  -->
<svg version="1.1" id="Layer_1" xmlns="http://www.w3.org/2000/svg" xmlns:xlink="http://www.w3.org/1999/xlink" x="0px" y="0px"
	 viewBox="0 0 512 512" style="enable-background:new 0 0 512 512;" xml:space="preserve">
<path style="fill:#F4B2B0;" d="M115.139,267.756l121.578,104.858c11.079,9.555,27.485,9.555,38.563,0l121.578-104.858
	c10.282-8.869,16.196-21.774,16.196-35.353l0,0c0-39.953-46.922-61.448-77.177-35.353l-60.597,52.262
	c-11.079,9.555-27.485,9.555-38.563,0l-60.597-52.262c-30.255-26.095-77.177-4.6-77.177,35.353l0,0
	C98.944,245.981,104.857,258.887,115.139,267.756z"/>
<g>
	<path style="fill:#B3404A;" d="M255.999,395.485c-10.84,0-21.331-3.898-29.539-10.98L104.882,279.649
		c-13.753-11.862-21.642-29.083-21.642-47.247c0-34.453,28.107-62.483,62.652-62.483c14.931,0,28.931,5.268,40.487,15.236
		l60.597,52.262c2.507,2.163,5.712,3.353,9.024,3.353c3.312,0,6.516-1.19,9.024-3.353l60.597-52.262
		c11.556-9.967,25.556-15.236,40.487-15.236c34.547,0,62.652,28.03,62.652,62.483c0,18.163-7.889,35.385-21.642,47.247
		l-121.58,104.858C277.33,391.586,266.841,395.485,255.999,395.485z M145.891,201.331c-15.357,0-31.241,11.622-31.241,31.072
		c0,9.02,3.917,17.57,10.747,23.461l121.58,104.858c2.508,2.163,5.712,3.355,9.024,3.355c3.312,0,6.516-1.19,9.024-3.353
		l121.58-104.858c6.83-5.89,10.747-14.441,10.747-23.461c0-19.45-15.885-31.072-31.241-31.072c-7.294,0-14.199,2.632-19.973,7.611
		l-60.597,52.262c-8.209,7.078-18.699,10.978-29.539,10.978s-21.331-3.898-29.539-10.978l-60.597-52.262
		C160.09,203.963,153.184,201.331,145.891,201.331z"/>
	<path style="fill:#B3404A;" d="M257.017,512c-141.158,0-256-114.842-256-256s114.842-256,256-256
		c128.145,0,237.268,95.678,253.833,222.555c1.123,8.6-4.939,16.483-13.541,17.606c-8.589,1.114-16.483-4.939-17.606-13.541
		C465.175,115.333,369.44,31.411,257.017,31.411C133.177,31.411,32.428,132.16,32.428,256s100.749,224.589,224.589,224.589
		c88.898,0,169.569-52.551,205.521-133.879c3.505-7.934,12.778-11.523,20.714-8.015c7.934,3.507,11.522,12.781,8.015,20.714
		C450.29,452.105,358.342,512,257.017,512z"/>
</g>
<g>
</g>
<g>
</g>
<g>
</g>
<g>
</g>
<g>
</g>
<g>
</g>
<g>
</g>
<g>
</g>
<g>
</g>
<g>
</g>
<g>
</g>
<g>
</g>
<g>
</g>
<g>
</g>
<g>
</g>
</svg>
