<?xml version="1.0" encoding="iso-8859-1"?>
<!-- Generator: Adobe Illustrator 19.0.0, SVG Export Plug-In . SVG Version: 6.00 Build 0)  -->
<svg version="1.1" id="Layer_1" xmlns="http://www.w3.org/2000/svg" xmlns:xlink="http://www.w3.org/1999/xlink" x="0px" y="0px"
	 viewBox="0 0 512 512" style="enable-background:new 0 0 512 512;" xml:space="preserve">
<path style="fill:#507C5C;" d="M426.582,512H85.418c-32.785,0-59.459-26.674-59.459-59.46V59.46C25.959,26.674,52.633,0,85.418,0
	h341.164c32.785,0,59.459,26.674,59.459,59.46V452.54C486.041,485.326,459.369,512,426.582,512z M85.418,28.499
	c-17.071,0-30.96,13.889-30.96,30.961V452.54c0,17.071,13.889,30.961,30.96,30.961h341.164c17.071,0,30.96-13.889,30.96-30.961
	V59.46c0-17.071-13.889-30.961-30.96-30.961H85.418z"/>
<path style="fill:#CFF09E;" d="M309.448,24.516h93.706v202.531c0,6.69-6.801,11.229-12.98,8.664l-30.276-12.577
	c-2.304-0.958-4.893-0.958-7.197,0l-30.276,12.577c-6.177,2.566-12.98-1.974-12.98-8.664V24.516H309.448z"/>
<path style="fill:#507C5C;" d="M393.783,250.687c-3.116,0-6.169-0.613-9.071-1.817l-28.408-11.8l-28.408,11.8
	c-2.904,1.206-5.955,1.817-9.071,1.817c-13.027,0-23.624-10.604-23.624-23.64V10.267h122.205v216.78
	C417.405,240.081,406.808,250.686,393.783,250.687z M323.698,38.766v180.987l23.54-9.778c5.772-2.4,12.354-2.401,18.131,0.001
	l23.537,9.777V38.766H323.698z"/>
<path style="fill:#CFF09E;" d="M140.86,14.249H85.418c-24.968,0-45.209,20.241-45.209,45.209V452.54
	c0,24.968,20.241,45.209,45.209,45.209h55.441L140.86,14.249L140.86,14.249z"/>
<path style="fill:#507C5C;" d="M155.109,512H85.418c-32.785,0-59.459-26.674-59.459-59.46V59.46C25.959,26.674,52.633,0,85.418,0
	h69.691V512z M85.418,28.499c-17.071,0-30.96,13.889-30.96,30.961V452.54c0,17.071,13.889,30.961,30.96,30.961h41.192V28.499H85.418
	z"/>
<g>
</g>
<g>
</g>
<g>
</g>
<g>
</g>
<g>
</g>
<g>
</g>
<g>
</g>
<g>
</g>
<g>
</g>
<g>
</g>
<g>
</g>
<g>
</g>
<g>
</g>
<g>
</g>
<g>
</g>
</svg>
