<?xml version="1.0" encoding="iso-8859-1"?>
<!-- Generator: Adobe Illustrator 19.0.0, SVG Export Plug-In . SVG Version: 6.00 Build 0)  -->
<svg version="1.1" id="Layer_1" xmlns="http://www.w3.org/2000/svg" xmlns:xlink="http://www.w3.org/1999/xlink" x="0px" y="0px"
	 viewBox="0 0 512 512" style="enable-background:new 0 0 512 512;" xml:space="preserve">
<g>
	<path style="fill:#507C5C;" d="M256.709,459.115H0V253.519c0-19.463,15.834-35.298,35.297-35.298h221.412V459.115z M28.366,430.749
		h199.978V246.588H35.297c-3.821,0-6.931,3.109-6.931,6.933V430.749z"/>
	<path style="fill:#507C5C;" d="M512,459.115H228.343V190.196c0-9.578,3.967-18.87,10.884-25.494L345.76,62.688
		c6.601-6.321,15.271-9.803,24.411-9.803s17.811,3.482,24.413,9.805l106.53,102.013C508.033,171.327,512,180.62,512,190.197V459.115
		z M256.709,430.749h226.925V190.196c0-1.881-0.78-3.706-2.139-5.007L374.966,83.175c-1.298-1.242-2.998-1.925-4.794-1.925
		s-3.496,0.682-4.792,1.923L258.846,185.189c-1.357,1.301-2.137,3.126-2.137,5.007V430.749z"/>
</g>
<path style="fill:#CFF09E;" d="M421.939,448.434v-85.808c0-28.472-23.295-51.767-51.767-51.767l0,0
	c-28.472,0-51.767,23.295-51.767,51.767v85.808H421.939z"/>
<path style="fill:#507C5C;" d="M436.122,454.106h-131.9v-91.479c0-36.366,29.584-65.95,65.95-65.95s65.95,29.584,65.95,65.95
	V454.106z M332.587,434.251h75.169v-71.625c0-20.724-16.861-37.585-37.585-37.585c-20.724,0-37.584,16.861-37.584,37.585V434.251z"
	/>
<path style="fill:#CFF09E;" d="M172.321,363.336H84.388c-5.483,0-9.928-4.445-9.928-9.928v-51.058c0-5.483,4.445-9.928,9.928-9.928
	h87.934c5.483,0,9.928,4.445,9.928,9.928v51.058C182.249,358.891,177.804,363.336,172.321,363.336z"/>
<path style="fill:#507C5C;" d="M172.321,377.518H84.388c-13.295,0-24.111-10.816-24.111-24.111v-51.058
	c0-13.295,10.816-24.111,24.111-24.111h87.934c13.295,0,24.111,10.816,24.111,24.111v51.058
	C196.432,366.703,185.616,377.518,172.321,377.518z M88.643,349.153h79.424v-42.548H88.643V349.153z"/>
<g>
</g>
<g>
</g>
<g>
</g>
<g>
</g>
<g>
</g>
<g>
</g>
<g>
</g>
<g>
</g>
<g>
</g>
<g>
</g>
<g>
</g>
<g>
</g>
<g>
</g>
<g>
</g>
<g>
</g>
</svg>
