<?xml version="1.0" encoding="iso-8859-1"?>
<!-- Generator: Adobe Illustrator 19.0.0, SVG Export Plug-In . SVG Version: 6.00 Build 0)  -->
<svg version="1.1" id="Layer_1" xmlns="http://www.w3.org/2000/svg" xmlns:xlink="http://www.w3.org/1999/xlink" x="0px" y="0px"
	 viewBox="0 0 512 512" style="enable-background:new 0 0 512 512;" xml:space="preserve">
<g>
	<path style="fill:#507C5C;" d="M415.853,512H96.147c-33.832,0-61.358-27.525-61.358-61.359V90.464
		c0-33.834,27.525-61.359,61.358-61.359h319.704c33.834,0,61.359,27.525,61.359,61.359v360.178
		C477.21,484.476,449.685,512,415.853,512z M96.147,58.514c-17.616,0-31.949,14.333-31.949,31.95v360.178
		c0,17.616,14.333,31.95,31.949,31.95h319.704c17.616,0,31.95-14.333,31.95-31.95V90.464c0-17.616-14.333-31.95-31.95-31.95H96.147z
		"/>
	<rect x="370.188" style="fill:#507C5C;" width="29.409" height="87.492"/>
	<rect x="284.254" style="fill:#507C5C;" width="29.409" height="87.492"/>
	<rect x="198.335" style="fill:#507C5C;" width="29.409" height="87.492"/>
	<rect x="112.402" style="fill:#507C5C;" width="29.409" height="87.492"/>
</g>
<path style="fill:#CFF09E;" d="M216.053,231.209h-89.208c-9.88,0-17.891-8.01-17.891-17.891v-52.447
	c0-9.88,8.01-17.891,17.891-17.891h89.208c9.88,0,17.891,8.01,17.891,17.891v52.447
	C233.944,223.198,225.933,231.209,216.053,231.209z"/>
<g>
	<path style="fill:#507C5C;" d="M216.053,245.912h-89.208c-17.973,0-32.596-14.621-32.596-32.594v-52.447
		c0-17.973,14.622-32.596,32.596-32.596h89.208c17.973,0,32.596,14.622,32.596,32.596v52.447
		C248.648,231.291,234.026,245.912,216.053,245.912z M126.845,157.684c-1.757,0-3.186,1.429-3.186,3.186v52.447
		c0,1.756,1.429,3.185,3.186,3.185h89.208c1.757,0,3.186-1.429,3.186-3.185v-52.447c0-1.757-1.429-3.186-3.186-3.186H126.845z"/>
	<path style="fill:#507C5C;" d="M343.59,231.09c-6.438,0-12.492-2.507-17.046-7.061l-32.971-32.971l20.797-20.797l29.219,29.219
		l52.078-52.076l20.797,20.797l-55.829,55.827C356.084,228.581,350.031,231.09,343.59,231.09z"/>
</g>
<path style="fill:#CFF09E;" d="M216.053,398.125h-89.208c-9.88,0-17.891-8.01-17.891-17.891v-52.447
	c0-9.88,8.01-17.891,17.891-17.891h89.208c9.88,0,17.891,8.01,17.891,17.891v52.447
	C233.944,390.115,225.933,398.125,216.053,398.125z"/>
<g>
	<path style="fill:#507C5C;" d="M216.053,412.829h-89.208c-17.973,0-32.596-14.622-32.596-32.596v-52.445
		c0-17.973,14.622-32.596,32.596-32.596h89.208c17.973,0,32.596,14.622,32.596,32.596v52.445
		C248.648,398.207,234.026,412.829,216.053,412.829z M126.845,324.602c-1.757,0-3.186,1.429-3.186,3.186v52.445
		c0,1.757,1.429,3.186,3.186,3.186h89.208c1.757,0,3.186-1.429,3.186-3.186v-52.445c0-1.757-1.429-3.186-3.186-3.186H126.845z"/>
	<path style="fill:#507C5C;" d="M343.59,398.007c-6.438,0-12.492-2.507-17.046-7.061l-32.971-32.972l20.797-20.797l29.219,29.221
		l52.078-52.078l20.797,20.797l-55.829,55.829C356.084,395.499,350.031,398.007,343.59,398.007z"/>
</g>
<g>
</g>
<g>
</g>
<g>
</g>
<g>
</g>
<g>
</g>
<g>
</g>
<g>
</g>
<g>
</g>
<g>
</g>
<g>
</g>
<g>
</g>
<g>
</g>
<g>
</g>
<g>
</g>
<g>
</g>
</svg>
