<?xml version="1.0" encoding="iso-8859-1"?>
<!-- Generator: Adobe Illustrator 19.0.0, SVG Export Plug-In . SVG Version: 6.00 Build 0)  -->
<svg version="1.1" id="Layer_1" xmlns="http://www.w3.org/2000/svg" xmlns:xlink="http://www.w3.org/1999/xlink" x="0px" y="0px"
	 viewBox="0 0 512 512" style="enable-background:new 0 0 512 512;" xml:space="preserve">
<g>
	<rect x="19.517" y="166.178" style="fill:#507C5C;" width="27.822" height="215.618"/>
	<path style="fill:#507C5C;" d="M255.999,483.104c-9.477,0-18.72-1.849-27.468-5.493L119.11,432.02
		c-26.699-11.125-43.951-37.003-43.951-65.926V133.171H436.84v232.921c0,28.923-17.251,54.802-43.951,65.926l-109.421,45.591
		C274.719,481.256,265.478,483.104,255.999,483.104z M102.98,160.992v205.1c0,17.656,10.53,33.453,26.828,40.244l109.421,45.591
		c5.342,2.226,10.984,3.354,16.769,3.354c5.785,0,11.428-1.128,16.769-3.354l109.421-45.591
		c16.298-6.79,26.828-22.587,26.828-40.244v-205.1H102.98z"/>
</g>
<path style="fill:#CFF09E;" d="M248.881,44.352L23.422,151.148c-12.681,6.007-12.681,24.05,0,30.057l225.46,106.796
	c4.506,2.134,9.732,2.134,14.238,0l225.459-106.796c12.681-6.007,12.681-24.05,0-30.057L263.119,44.352
	C258.613,42.218,253.387,42.218,248.881,44.352z"/>
<path style="fill:#507C5C;" d="M255.999,303.513c-4.492,0-9.013-1.015-13.072-2.939L17.466,193.777
	C6.692,188.674,0,178.099,0,166.177s6.692-22.497,17.466-27.6L242.926,31.78c8.124-3.846,18.026-3.846,26.147,0l225.461,106.796
	c10.774,5.104,17.466,15.679,17.466,27.6s-6.693,22.497-17.466,27.6l-225.46,106.796
	C265.012,302.497,260.492,303.513,255.999,303.513z M255.999,56.661c-0.406,0-0.797,0.088-1.164,0.262L29.377,163.72
	c-1.032,0.488-1.555,1.315-1.555,2.457s0.523,1.968,1.555,2.458l225.459,106.796c0.73,0.348,1.594,0.348,2.327,0l225.458-106.796
	c1.032-0.488,1.555-1.315,1.555-2.457s-0.523-1.968-1.555-2.458L257.162,56.923C256.798,56.749,256.405,56.661,255.999,56.661z"/>
<g>
</g>
<g>
</g>
<g>
</g>
<g>
</g>
<g>
</g>
<g>
</g>
<g>
</g>
<g>
</g>
<g>
</g>
<g>
</g>
<g>
</g>
<g>
</g>
<g>
</g>
<g>
</g>
<g>
</g>
</svg>
