<?xml version="1.0" encoding="iso-8859-1"?>
<!-- Generator: Adobe Illustrator 19.0.0, SVG Export Plug-In . SVG Version: 6.00 Build 0)  -->
<svg version="1.1" id="Layer_1" xmlns="http://www.w3.org/2000/svg" xmlns:xlink="http://www.w3.org/1999/xlink" x="0px" y="0px"
	 viewBox="0 0 512 512" style="enable-background:new 0 0 512 512;" xml:space="preserve">
<path style="fill:#CFF09E;" d="M98.85,400.054l-43.346,43.346c-12.297,12.297-12.297,32.42,0,44.716l0,0
	c12.297,12.297,32.42,12.297,44.716,0l46.452-46.452C128.652,430.323,112.523,416.262,98.85,400.054z"/>
<path style="fill:#507C5C;" d="M77.861,511.318c-12.204,0-23.654-4.729-32.242-13.316c-17.779-17.779-17.779-46.707,0-64.486
	l54.104-54.104l9.811,11.628c12.808,15.182,27.808,28.235,44.585,38.794l14.822,9.329l-58.837,58.838
	C101.517,506.589,90.066,511.318,77.861,511.318z M98.345,420.328l-32.956,32.958c-6.879,6.877-6.879,18.07,0,24.948
	c3.307,3.307,7.737,5.129,12.473,5.129s9.167-1.821,12.474-5.129l34.565-34.565C115.439,436.616,106.565,428.816,98.345,420.328z"/>
<path style="fill:#CFF09E;" d="M456.497,443.401l-43.346-43.346c-13.672,16.206-29.803,30.268-47.822,41.61l46.452,46.452
	c12.297,12.297,32.42,12.297,44.716,0l0,0C468.793,475.82,468.793,455.697,456.497,443.401z"/>
<path style="fill:#507C5C;" d="M434.139,511.318c-12.204,0-23.654-4.729-32.242-13.316l-58.837-58.837l14.822-9.329
	c16.777-10.561,31.777-23.613,44.585-38.794l9.811-11.628l54.104,54.104c17.779,17.779,17.779,46.707,0,64.486
	C457.793,506.589,446.343,511.318,434.139,511.318z M387.101,443.669l34.565,34.564c3.307,3.307,7.737,5.129,12.474,5.129
	s9.167-1.821,12.473-5.129c6.879-6.877,6.879-18.07,0-24.948l-32.956-32.958C405.434,428.816,396.561,436.616,387.101,443.669z"/>
<path style="fill:#CFF09E;" d="M186.11,74.044c-12.055-34.568-44.919-59.381-83.597-59.381c-48.897,0-88.535,39.638-88.535,88.534
	c0,36.178,21.711,67.267,52.804,81.004C86.644,130.98,130.98,89.691,186.11,74.044z"/>
<path style="fill:#507C5C;" d="M74.695,202.974l-13.562-5.991C23.996,180.58,0,143.766,0,103.197
	C0,46.672,45.987,0.685,102.512,0.685c43.555,0,82.455,27.631,96.796,68.756l4.883,14.002l-14.265,4.048
	c-50.519,14.337-91.656,52.318-110.047,101.596L74.695,202.974z M102.512,28.641c-41.11,0-74.555,33.446-74.555,74.555
	c0,24.677,12.213,47.446,32.016,61.219c21.458-45.422,60.021-81.025,106.961-98.75C153.76,43.068,129.351,28.641,102.512,28.641z"/>
<path style="fill:#CFF09E;" d="M409.488,14.663c-38.679,0-71.543,24.813-83.597,59.381c55.129,15.647,99.466,56.936,119.326,110.155
	c31.093-13.736,52.804-44.825,52.804-81.004C498.022,54.301,458.384,14.663,409.488,14.663z"/>
<g>
	<path style="fill:#507C5C;" d="M437.305,202.974l-5.183-13.89c-18.391-49.277-59.529-87.257-110.047-101.596l-14.265-4.048
		l4.883-14.002c14.342-41.125,53.241-68.756,96.796-68.756C466.013,0.682,512,46.669,512,103.194
		c0,40.567-23.996,77.382-61.134,93.789L437.305,202.974z M345.067,65.667c46.94,17.724,85.503,53.327,106.961,98.75
		c19.803-13.774,32.016-36.543,32.016-61.219c0-41.11-33.446-74.555-74.555-74.555C382.649,28.641,358.24,43.068,345.067,65.667z"/>
	<path style="fill:#507C5C;" d="M256.001,487.119c-121.034,0-219.502-98.468-219.502-219.502S134.966,48.113,256.001,48.113
		s219.502,98.468,219.502,219.502S377.034,487.119,256.001,487.119z M256.001,76.069c-105.619,0-191.546,85.928-191.546,191.546
		s85.928,191.546,191.546,191.546s191.546-85.928,191.546-191.546S361.618,76.069,256.001,76.069z"/>
	<path style="fill:#507C5C;" d="M256.001,439.689c-94.881,0-172.074-77.192-172.074-172.074S161.118,95.542,256.001,95.542v27.956
		c-79.467,0-144.118,64.65-144.118,144.118s64.651,144.118,144.118,144.118s144.118-64.651,144.118-144.118h27.956
		C428.074,362.498,350.882,439.689,256.001,439.689z"/>
	<polygon style="fill:#507C5C;" points="258.76,300.433 186.511,264.309 199.013,239.304 253.24,266.416 325.163,194.494 
		344.933,214.262 	"/>
</g>
<g>
</g>
<g>
</g>
<g>
</g>
<g>
</g>
<g>
</g>
<g>
</g>
<g>
</g>
<g>
</g>
<g>
</g>
<g>
</g>
<g>
</g>
<g>
</g>
<g>
</g>
<g>
</g>
<g>
</g>
</svg>
