<svg id="Capa_1" data-name="Capa 1" xmlns="http://www.w3.org/2000/svg" viewBox="0 0 512 387.01"><defs><style>.cls-1{fill:#e24c4b;}</style></defs><title>wifi0</title><path class="cls-1" d="M83.19,244.33A27.45,27.45,0,1,0,122,283.15c73.87-73.87,194.11-73.87,268,0a27.41,27.41,0,1,0,38.72-38.82C333.49,149,178.41,149,83.19,244.33Z" transform="translate(0.05 -66.5)"/><path class="cls-1" d="M157.27,318.41a27.45,27.45,0,1,0,38.82,38.83,84.62,84.62,0,0,1,119.71,0,27.38,27.38,0,0,0,38.72-38.72C300.21,264,211.69,264,157.27,318.41Z" transform="translate(0.05 -66.5)"/><ellipse class="cls-1" cx="255.95" cy="416.99" rx="36.48" ry="36.55" transform="translate(-219.81 236.51) rotate(-44.99)"/><path class="cls-1" d="M503.94,169C367.18,32.33,144.72,32.33,8,169a27.45,27.45,0,0,0,38.82,38.82c115.32-115.42,303-115.42,418.46,0A27.41,27.41,0,1,0,503.94,169Z" transform="translate(0.05 -66.5)"/><path class="cls-1" d="M462.89,434.93q0-8.71,4.59-13.25c3.06-3,7.42-4.53,13.07-4.53s9.85,1.57,12.83,4.71,4.47,7.5,4.47,13.07-1.51,10-4.53,13.24-7.28,4.89-12.77,4.89-9.91-1.57-13-4.71S462.89,440.74,462.89,434.93Zm28-37.56H470.42L464.3,277.53h32.61Z" transform="translate(0.05 -66.5)"/></svg>