<svg id="Capa_1" data-name="Capa 1" xmlns="http://www.w3.org/2000/svg" viewBox="0 0 361.53 280.67"><defs><style>.cls-1{fill:#fff;}</style></defs><title>wifi3</title><path class="cls-1" d="M83.24,187.16A27.45,27.45,0,0,0,122.06,226c73.88-73.87,194.11-73.87,268,0a27.41,27.41,0,0,0,38.72-38.82C333.54,91.83,178.46,91.83,83.24,187.16Z" transform="translate(-75.24 -115.67)"/><path class="cls-1" d="M157.33,261.25a27.45,27.45,0,0,0,38.82,38.82,84.61,84.61,0,0,1,119.7,0,27.38,27.38,0,1,0,38.72-38.72C300.26,206.83,211.74,206.83,157.33,261.25Z" transform="translate(-75.24 -115.67)"/><circle class="cls-1" cx="180.76" cy="244.15" r="36.52"/></svg>