<svg height="464pt" viewBox="0 -31 464 463" width="464pt" xmlns="http://www.w3.org/2000/svg"><path d="m316 128.5h-316v160c0 8.835938 7.164062 16 16 16h37.039062c68.433594-29.863281 180.5625-87.921875 262.960938-176zm0 0" fill="#1db794"/><path d="m0 64.5v64h316c18.628906-19.773438 35.429688-41.195312 50.191406-64zm0 0" fill="#787680"/><path d="m16 .5c-8.824219.027344-15.9726562 7.175781-16 16v48h366.207031c12.992188-20.1875 23.917969-41.625 32.617188-64zm0 0" fill="#1db794"/><path d="m448 .5h-49.175781c-8.699219 22.375-19.625 43.8125-32.617188 64h97.792969v-48c-.027344-8.824219-7.175781-15.972656-16-16zm0 0" fill="#1bab8a"/><path d="m366.207031 64.5c-14.765625 22.804688-31.570312 44.226562-50.207031 64h148v-64zm0 0" fill="#57565c"/><path d="m464 288.5v-160h-148c-82.398438 88.078125-194.527344 146.136719-262.960938 176h394.960938c8.835938 0 16-7.164062 16-16zm0 0" fill="#1bab8a"/><path d="m432 280.5c0-66.273438-53.726562-120-120-120s-120 53.726562-120 120 53.726562 120 120 120 120-53.726562 120-120zm-216 0c0-53.019531 42.980469-96 96-96s96 42.980469 96 96-42.980469 96-96 96-96-42.980469-96-96zm0 0" fill="#ffb655"/><path d="m408 280.5c0 53.019531-42.980469 96-96 96s-96-42.980469-96-96 42.980469-96 96-96 96 42.980469 96 96zm0 0" fill="#ffb655"/><path d="m312 384.5c-57.4375 0-104-46.5625-104-104s46.5625-104 104-104 104 46.5625 104 104c-.066406 57.410156-46.589844 103.933594-104 104zm0-192c-48.601562 0-88 39.398438-88 88s39.398438 88 88 88 88-39.398438 88-88c-.058594-48.578125-39.421875-87.941406-88-88zm0 0" fill="#ff7956"/><g fill="#ff6243"><path d="m328 241.972656v-9.472656h-16v8h-8v-8h-16v8c-4.417969 0-8 3.582031-8 8v64c0 4.417969 3.582031 8 8 8v8h16v-8h8v8h16v-9.472656c7.566406-2.617188 13.308594-8.867188 15.273438-16.628906 1.96875-7.761719-.105469-15.992188-5.511719-21.898438 5.40625-5.90625 7.480469-14.136719 5.511719-21.898438-1.964844-7.761718-7.707032-14.011718-15.273438-16.628906zm-32 14.527344h24c4.417969 0 8 3.582031 8 8s-3.582031 8-8 8h-24zm24 48h-24v-16h24c4.417969 0 8 3.582031 8 8s-3.582031 8-8 8zm0 0"/><path d="m360 272.5h16v16h-16zm0 0"/><path d="m248 272.5h16v16h-16zm0 0"/></g><path d="m96 240.5c0 17.671875-14.328125 32-32 32s-32-14.328125-32-32 14.328125-32 32-32 32 14.328125 32 32zm0 0" fill="#ff7956"/><path d="m144 240.5c0 17.671875-14.328125 32-32 32s-32-14.328125-32-32 14.328125-32 32-32 32 14.328125 32 32zm0 0" fill="#ffde55"/></svg>